<?xml version="1.0" standalone="no"?>
<!DOCTYPE svg PUBLIC "-//W3C//DTD SVG 20010904//EN"
 "http://www.w3.org/TR/2001/REC-SVG-20010904/DTD/svg10.dtd">
<svg version="1.0" xmlns="http://www.w3.org/2000/svg"
 width="1080.000000pt" height="1080.000000pt" viewBox="0 0 1080.000000 1080.000000"
 preserveAspectRatio="xMidYMid meet">
<metadata>
Created by potrace 1.14, written by Peter Selinger 2001-2017
</metadata>
<g transform="translate(0.000000,1080.000000) scale(0.100000,-0.100000)"
fill="#000000" stroke="none">
<path d="M2585 7170 c-4 -6 -11 -8 -16 -5 -5 4 -9 0 -9 -7 0 -10 -3 -9 -10 2
-8 12 -10 12 -16 -3 -4 -10 -13 -16 -20 -13 -8 3 -14 1 -14 -5 0 -6 -4 -7 -10
-4 -5 3 -10 1 -10 -5 0 -6 -4 -8 -10 -5 -5 3 -10 2 -10 -4 0 -5 -9 -13 -21
-16 -25 -8 -160 -145 -142 -145 3 0 -4 -16 -16 -35 -11 -20 -22 -49 -23 -65
-1 -17 -5 -30 -8 -30 -4 0 -6 -10 -5 -22 1 -13 -2 -33 -6 -45 -5 -13 -5 -23
-1 -23 4 0 8 -15 9 -32 1 -18 4 -46 8 -63 4 -16 8 -36 8 -42 0 -7 4 -13 9 -13
5 0 7 -4 4 -9 -3 -5 3 -20 14 -34 31 -39 27 -64 -10 -61 -17 1 -33 -2 -36 -7
-3 -5 -9 -7 -14 -4 -4 3 -13 -2 -20 -10 -7 -8 -17 -12 -22 -9 -5 3 -16 -2 -23
-12 -8 -11 -15 -16 -15 -12 0 14 -51 -32 -90 -82 -69 -89 -87 -252 -39 -342 5
-10 9 -22 9 -28 0 -6 9 -20 20 -32 10 -12 17 -25 14 -30 -3 -5 -2 -7 3 -6 4 2
22 -12 39 -29 17 -18 36 -33 42 -33 6 0 12 -4 14 -9 2 -5 12 -11 23 -13 11 -1
26 -9 34 -16 7 -7 23 -12 35 -11 11 1 32 -3 46 -8 13 -5 39 -7 57 -3 18 5 31
5 29 1 -3 -4 15 -7 40 -7 24 1 44 5 44 11 0 7 3 7 8 0 9 -13 152 -14 152 -1 0
6 5 5 11 -1 14 -14 4 -47 -11 -38 -5 3 -10 0 -10 -8 0 -8 -7 -20 -15 -27 -8
-7 -13 -16 -10 -20 3 -5 1 -10 -5 -12 -5 -1 -11 -15 -12 -30 -1 -16 -5 -28 -9
-28 -4 0 -6 -11 -4 -25 1 -14 -2 -28 -7 -31 -5 -3 -4 -12 3 -20 9 -11 8 -14
-2 -14 -11 0 -11 -2 1 -10 12 -8 12 -10 -3 -16 -9 -3 -26 -4 -37 -1 -11 3 -20
0 -20 -6 0 -8 -4 -7 -9 2 -5 8 -11 9 -15 3 -3 -6 -17 -9 -31 -7 -16 1 -25 -3
-25 -11 0 -7 -6 -11 -14 -8 -8 3 -43 -13 -77 -35 -35 -23 -60 -41 -56 -41 4 0
-6 -13 -23 -30 -17 -16 -27 -30 -23 -30 4 0 -1 -7 -11 -15 -11 -8 -16 -15 -12
-15 5 0 3 -7 -4 -15 -13 -16 -14 -16 60 -19 19 0 41 -5 49 -10 10 -6 12 -6 7
2 -10 16 7 15 23 0 8 -8 11 -8 8 -2 -8 14 130 14 152 0 9 -6 12 -5 8 1 -8 12
132 12 152 -1 9 -6 12 -5 8 1 -3 5 16 9 48 10 34 0 52 -4 48 -10 -4 -6 -1 -7
8 -1 8 5 42 10 77 11 35 1 82 11 107 22 24 10 47 16 51 13 4 -4 4 -2 0 5 -3 7
2 14 13 18 10 3 29 21 42 40 13 19 28 35 32 35 5 0 6 4 3 9 -3 5 1 11 9 15 8
3 17 0 21 -6 5 -7 2 -8 -7 -4 -8 4 -6 1 4 -7 9 -8 17 -18 17 -23 1 -10 82 -74
90 -71 3 1 16 -6 29 -15 13 -9 30 -14 37 -11 8 3 14 0 14 -7 0 -10 3 -10 14
-1 8 7 17 8 20 3 6 -10 36 -9 54 2 6 4 12 3 12 -3 0 -10 31 -8 49 3 5 4 11 1
13 -5 3 -9 10 -9 27 1 13 6 21 7 17 2 -7 -12 32 -10 51 1 6 4 14 3 17 -1 4 -7
16 -8 58 -3 4 1 5 13 2 27 -3 14 -1 23 4 20 5 -3 7 5 6 17 -1 12 -3 22 -4 22
-6 0 -4 57 2 61 5 3 5 11 1 17 -9 16 -10 66 -2 100 4 15 4 25 -1 22 -4 -3 -7
13 -6 35 2 22 -1 40 -6 40 -4 0 -7 3 -6 8 1 4 -3 17 -10 30 -7 12 -9 22 -5 22
4 0 0 5 -9 11 -10 5 -18 16 -18 24 0 7 -9 17 -20 20 -11 3 -20 13 -20 21 0 8
-4 13 -9 10 -5 -3 -12 1 -15 10 -4 12 -2 15 9 10 8 -3 15 0 15 6 0 9 3 9 12 0
16 -16 31 -15 22 1 -6 10 -4 10 7 0 7 -7 17 -13 22 -13 4 0 5 6 1 13 -6 10 -4
10 7 0 16 -15 33 -17 24 -3 -3 5 0 8 7 5 17 -6 32 4 47 32 14 27 14 46 1 38
-5 -3 -10 1 -10 9 0 8 -8 19 -17 24 -28 13 -326 7 -331 -7 -2 -6 -8 -9 -13 -6
-11 8 -81 -25 -92 -42 -4 -7 -15 -13 -22 -13 -8 0 -15 -7 -15 -16 0 -8 -4 -12
-10 -9 -5 3 -15 -5 -21 -19 -7 -14 -16 -23 -21 -20 -4 3 -11 -8 -14 -24 -4
-18 -14 -32 -25 -35 -13 -3 -17 -1 -12 6 11 18 11 1009 0 1031 -6 13 -6 16 2
12 6 -4 11 -2 11 3 0 6 -4 11 -8 11 -4 0 -9 14 -10 32 -2 17 -6 36 -11 42 -5
6 -7 19 -6 29 2 9 -1 15 -5 12 -5 -3 -12 5 -16 17 -4 13 -10 25 -15 28 -4 3
-9 11 -11 19 -3 15 -98 111 -110 111 -3 0 -14 7 -22 16 -9 8 -25 17 -36 19
-11 2 -25 7 -30 10 -5 3 -20 8 -32 10 -12 3 -25 10 -29 16 -5 8 -8 8 -13 0 -4
-6 -13 -11 -19 -11 -7 0 -6 4 3 10 10 7 -7 10 -58 10 -40 0 -71 -4 -68 -8 3
-5 -1 -9 -9 -9 -8 0 -12 4 -9 9 3 4 3 8 0 8 -3 0 -8 -5 -11 -10z m59 -129 c4
-5 0 -12 -6 -14 -10 -4 -9 -8 2 -16 8 -5 11 -13 7 -17 -3 -4 -15 3 -25 16
l-18 23 -23 -29 c-13 -16 -18 -30 -12 -32 6 -2 11 -9 11 -16 0 -7 10 -12 23
-10 12 1 26 3 30 3 5 1 6 5 3 10 -9 13 27 37 52 35 16 -1 21 3 18 12 -3 8 -1
14 4 14 6 0 10 -6 10 -13 0 -17 -34 -49 -43 -40 -4 3 -16 -2 -27 -12 -15 -14
-17 -21 -9 -32 6 -7 8 -13 3 -14 -5 0 1 -4 14 -10 18 -7 28 -4 44 11 16 14 18
20 7 20 -12 0 -12 2 1 10 10 6 11 10 3 10 -7 0 -13 5 -13 12 0 6 9 3 21 -8 25
-23 22 -22 43 -5 11 10 15 22 11 38 -3 13 -1 23 5 23 5 0 10 -4 10 -9 0 -5 11
-8 24 -5 19 3 28 -2 38 -23 10 -20 20 -27 36 -25 24 4 30 -12 10 -25 -21 -13
-58 -15 -58 -3 0 6 6 8 13 4 9 -6 9 -5 0 8 -7 8 -10 17 -7 21 3 3 -4 10 -15
17 -15 8 -21 8 -21 0 0 -6 -4 -9 -8 -6 -4 2 -13 -4 -20 -15 -10 -16 -9 -22 7
-38 11 -11 29 -18 41 -16 12 2 20 -2 21 -11 1 -8 2 -20 3 -26 1 -12 44 -13 55
-2 9 8 8 49 -2 55 -6 4 -5 9 1 13 5 3 17 -5 25 -18 15 -22 14 -25 -4 -45 -11
-12 -18 -25 -15 -30 3 -5 -1 -11 -8 -14 -8 -3 -17 -1 -20 6 -3 8 -10 5 -21 -8
-9 -11 -21 -19 -26 -17 -6 1 -2 -9 8 -22 28 -39 75 -28 68 17 -2 9 1 17 6 17
5 0 9 -5 9 -11 0 -5 5 -7 10 -4 6 3 19 3 31 0 16 -5 18 -10 8 -21 -7 -9 -17
-11 -28 -5 -22 12 -41 -8 -41 -43 0 -9 -7 -12 -20 -9 -11 3 -27 0 -34 -7 -19
-15 -5 -54 20 -56 11 -1 24 -2 31 -3 7 -1 10 -8 7 -16 -4 -8 -1 -15 6 -15 6 0
8 -5 4 -12 -5 -8 -2 -9 9 -5 10 4 17 1 18 -6 0 -9 2 -9 6 1 8 21 28 13 28 -11
0 -13 -6 -24 -12 -24 -7 0 -13 5 -13 10 0 5 -5 5 -13 -1 -16 -13 -31 -3 -35
23 -5 29 -14 34 -41 24 -15 -6 -21 -14 -17 -25 3 -8 2 -12 -4 -9 -6 3 -10 3
-10 -2 1 -20 17 -31 46 -28 24 2 30 -1 29 -16 -1 -19 -15 -40 -15 -23 0 17
-36 13 -47 -6 -18 -27 10 -62 40 -51 12 5 22 17 22 27 0 11 7 19 17 19 9 0 20
4 24 8 14 14 22 7 26 -23 5 -32 -17 -44 -28 -15 -5 12 -9 11 -26 -5 -11 -10
-18 -25 -15 -33 4 -10 -5 -13 -34 -13 -34 1 -37 3 -33 22 8 30 -38 39 -62 13
-16 -18 -16 -20 1 -39 10 -11 21 -17 26 -15 4 3 16 -6 27 -20 11 -13 22 -22
26 -20 3 3 2 0 -3 -6 -7 -9 -14 -7 -26 5 -24 23 -45 18 -57 -15 -9 -23 5 -40
36 -43 23 -3 31 4 27 26 0 4 9 10 22 14 32 9 56 34 50 50 -3 9 1 14 12 14 10
0 13 -5 9 -12 -4 -6 3 -4 17 5 33 24 36 22 31 -20 -4 -32 -6 -34 -17 -20 -13
18 -41 24 -30 7 3 -6 -1 -7 -10 -4 -11 5 -14 1 -12 -17 4 -23 47 -61 47 -41 0
6 6 9 13 7 6 -3 12 -16 12 -29 0 -18 -4 -22 -15 -17 -8 4 -21 6 -27 5 -7 -1
-17 -2 -23 -3 -11 -1 -9 -29 4 -49 5 -8 18 -11 35 -7 24 5 27 3 26 -20 -2 -24
-15 -49 -15 -27 0 17 -42 8 -54 -12 -9 -14 -6 -21 13 -37 22 -18 25 -18 36 -3
16 22 25 0 14 -36 -4 -14 -7 -20 -8 -13 -1 7 -13 10 -30 8 -25 -3 -28 -1 -25
20 2 24 -8 31 -55 40 -9 2 -17 4 -19 4 -1 1 3 7 10 15 7 8 17 10 23 6 6 -5 19
-2 29 6 11 8 16 14 10 14 -5 0 -2 5 6 10 10 6 11 10 3 10 -7 0 -12 5 -10 11 3
15 -42 22 -59 9 -14 -13 -14 5 0 29 7 10 6 12 -4 6 -8 -5 -11 -4 -7 2 12 19
-25 24 -49 8 -13 -9 -24 -18 -24 -21 0 -12 27 -31 53 -38 19 -4 27 -13 27 -27
0 -17 -3 -19 -13 -10 -8 6 -18 7 -22 3 -5 -4 -5 -1 -1 6 4 7 1 12 -7 12 -8 0
-17 7 -21 15 -3 8 -11 15 -18 15 -7 0 -19 9 -26 21 -8 12 -10 19 -5 16 10 -6
51 14 53 26 2 14 -54 61 -58 48 -2 -6 -8 -9 -13 -5 -5 3 -9 -3 -9 -14 0 -10
-6 -19 -14 -19 -11 0 -12 4 -3 21 7 12 17 24 22 28 6 5 5 8 -3 8 -7 0 -11 4
-7 9 9 15 -32 23 -55 11 -22 -12 -27 -1 -7 19 10 11 9 12 -2 6 -11 -6 -13 -4
-8 8 6 16 -4 22 -27 18 -4 -1 -17 1 -28 4 -15 5 -17 10 -7 21 6 7 15 11 20 8
20 -12 44 15 44 50 1 23 -3 32 -10 27 -5 -5 -18 -7 -27 -6 -10 2 -18 -1 -18
-6 0 -5 -4 -9 -9 -9 -5 0 -7 9 -4 20 5 18 21 25 46 21 4 0 7 5 7 12 1 16 24
-24 25 -42 0 -15 28 -23 52 -14 8 3 12 12 9 19 -3 8 0 14 7 14 7 0 -1 9 -18
20 -23 15 -32 17 -45 7 -8 -6 -12 -8 -8 -3 7 8 -17 66 -28 66 -2 0 -16 -7 -29
-16 -21 -13 -23 -19 -14 -37 10 -17 9 -19 -7 -13 -35 14 -49 13 -56 -3 -6 -13
-7 -12 -6 4 2 11 -1 26 -6 33 -6 10 0 12 28 6 28 -5 36 -3 34 7 -2 8 3 13 10
12 15 -4 15 6 -3 37 -8 14 -14 19 -15 11 0 -11 -3 -11 -15 -1 -11 9 -15 9 -15
1 0 -7 -4 -10 -9 -7 -5 3 -11 -3 -14 -14 -3 -10 0 -21 7 -23 6 -3 -8 -5 -31
-5 -24 0 -40 4 -38 9 10 15 -26 47 -46 42 -23 -6 -26 22 -3 31 9 4 13 2 8 -5
-3 -6 5 -4 19 5 39 26 25 66 -24 66 -27 0 -29 2 -19 21 8 14 15 17 23 10 15
-12 43 8 41 29 -1 8 -2 21 -3 28 0 6 -6 11 -13 10 -19 -4 -16 25 5 44 10 9 18
20 18 25 -1 4 7 8 18 9 11 1 27 4 37 8 14 5 15 4 4 -9 -8 -10 -9 -15 -1 -15 6
0 11 -4 11 -9 0 -10 -19 -9 -37 2 -16 10 -45 -35 -37 -57 4 -10 16 -16 28 -15
44 3 51 0 30 -16 -19 -15 -19 -15 1 -9 15 5 17 4 9 -5 -7 -8 -18 -9 -35 -2
-20 7 -25 6 -27 -8 -1 -9 -3 -25 -4 -36 -2 -15 3 -20 22 -21 36 -2 54 14 38
34 -10 13 -10 14 0 8 7 -4 12 -2 12 5 0 10 3 10 12 1 14 -14 32 -16 23 -2 -3
5 0 8 7 5 7 -3 18 6 25 20 6 14 7 23 2 19 -5 -3 -9 -1 -9 3 0 5 18 8 41 8 22
0 35 -1 29 -3 -7 -3 -7 -9 2 -20 11 -13 11 -14 -1 -8 -9 6 -12 5 -10 -3 3 -7
7 -11 10 -9 3 2 13 -3 22 -11 12 -9 17 -10 17 -2 0 7 4 9 10 6 11 -7 25 39 15
55 -3 6 -12 10 -18 9 -28 -3 -48 2 -42 11 3 5 -6 17 -21 27 -25 16 -27 16 -39
0 -16 -22 -29 -22 -17 -1 9 17 5 53 -7 55 -3 1 -16 3 -27 4 -12 1 -26 5 -33 9
-18 12 -1 28 23 22 15 -4 26 1 34 15 19 30 74 49 86 30z m127 -7 c8 -4 7 -9
-2 -15 -8 -4 -20 -3 -28 4 -12 10 -13 9 -7 -1 7 -11 4 -11 -13 -1 -13 9 -16
16 -9 20 12 8 41 4 59 -7z m-206 -152 c11 -6 16 -12 10 -12 -5 -1 -25 -3 -42
-4 -20 -2 -30 0 -27 6 4 6 0 14 -7 19 -21 14 42 6 66 -9z m405 -172 c8 13 10
12 11 -2 1 -10 2 -24 3 -30 4 -24 -6 -29 -20 -11 -7 10 -14 13 -14 8 0 -6 -10
-11 -22 -12 -13 0 -17 1 -10 4 10 4 10 8 1 19 -9 11 -9 14 0 14 7 0 9 5 6 11
-4 6 3 5 14 -3 18 -11 23 -11 31 2z m-533 -115 c0 -17 -24 -28 -32 -15 -4 6
-1 10 5 10 6 0 8 5 5 10 -3 6 0 10 8 10 7 0 14 -7 14 -15z m31 -41 c6 -1 12 3
13 9 0 13 22 -31 23 -48 1 -5 11 -11 24 -11 37 -2 40 -3 45 -19 5 -11 -2 -14
-28 -13 -22 1 -35 6 -35 15 0 7 -4 13 -10 13 -5 0 -10 7 -10 16 0 9 -6 14 -14
11 -7 -3 -20 3 -30 14 -19 23 -21 33 -3 22 6 -4 18 -8 25 -9z m382 -154 c0 -5
-2 -10 -4 -10 -3 0 -8 5 -11 10 -3 6 -1 10 4 10 6 0 11 -4 11 -10z m-518 -42
c17 17 35 15 35 -5 0 -38 4 -43 33 -43 27 0 35 8 31 33 0 4 6 7 14 7 13 0 14
-4 3 -22 -12 -22 -14 -28 -17 -46 0 -5 -16 -9 -34 -9 -27 0 -33 4 -33 21 1 12
-4 20 -12 18 -8 -1 -11 2 -6 9 5 8 1 10 -13 7 -29 -8 -47 6 -39 28 6 16 8 16
16 4 7 -12 12 -12 22 -2z m-66 -47 c21 7 24 6 24 -17 0 -25 15 -36 51 -38 11
-1 20 -5 20 -11 1 -23 31 -44 49 -35 20 11 31 4 24 -15 -3 -7 4 -20 16 -28 20
-14 24 -14 40 0 22 20 12 57 -16 59 -11 1 -24 2 -30 3 -18 2 -12 29 8 34 10 3
18 1 18 -5 0 -5 5 -8 11 -6 6 2 11 8 11 13 0 15 19 35 32 35 6 0 4 -6 -4 -13
-16 -13 -20 -54 -7 -74 8 -13 48 -5 60 11 4 6 5 -6 3 -26 -3 -27 0 -38 12 -43
9 -3 18 -1 20 4 6 17 32 13 33 -4 1 -8 2 -21 3 -27 0 -7 17 -16 36 -19 19 -4
28 -7 20 -8 -12 -1 -11 -4 3 -12 9 -6 14 -15 11 -21 -5 -7 -1 -9 9 -5 10 3 17
2 17 -3 0 -6 7 -10 15 -10 8 0 15 -5 15 -11 0 -6 -6 -9 -13 -6 -7 3 -23 0 -34
-7 -21 -11 -21 -13 -7 -42 11 -23 20 -30 35 -27 10 3 16 10 12 16 -4 6 -1 7 7
2 10 -6 12 -1 8 19 -7 33 2 39 25 16 17 -17 17 -18 -8 -34 -21 -14 -24 -20
-14 -37 13 -25 5 -36 -15 -20 -16 14 -47 11 -58 -4 -5 -6 -8 -3 -8 7 0 9 5 20
10 23 6 3 10 12 10 18 0 7 -4 6 -11 -3 -8 -12 -9 -12 -7 5 3 17 -2 19 -35 18
-38 -1 -38 -1 -21 18 11 12 20 16 24 9 10 -15 35 18 35 46 1 31 -31 38 -55 11
-22 -23 -26 -37 -10 -37 6 0 10 -5 10 -10 0 -6 -11 -3 -24 5 -23 15 -25 15
-45 -6 -30 -33 -13 -59 36 -53 24 3 33 1 24 -5 -9 -6 -10 -11 -2 -15 6 -4 11
-11 11 -16 0 -9 -19 -8 -37 3 -6 4 -19 0 -27 -9 -15 -14 -16 -13 -16 11 0 51
-46 67 -65 22 -6 -12 -19 -22 -30 -22 -11 0 -25 -7 -32 -15 -6 -8 -15 -11 -19
-7 -5 4 -4 11 2 15 6 4 10 17 9 30 -1 16 2 19 9 12 13 -13 59 -13 51 0 -3 6
-2 10 4 10 6 0 8 6 5 14 -3 8 0 17 7 22 8 5 10 3 4 -6 -6 -10 -4 -11 6 -4 8 5
22 7 33 5 11 -1 16 2 12 8 -4 6 -3 11 1 11 5 0 9 9 10 20 1 13 -2 18 -9 14 -6
-4 -8 -3 -5 3 10 15 -27 22 -44 9 -8 -6 -16 -20 -17 -31 -5 -25 -1 -24 -40
-13 -18 5 -30 12 -28 17 5 8 -18 35 -36 43 -14 6 -39 -42 -33 -62 4 -11 11
-18 16 -15 5 4 9 1 9 -6 0 -8 6 -6 18 4 24 22 28 21 28 -2 0 -10 -8 -24 -18
-30 -12 -8 -18 -8 -18 -1 0 6 -11 3 -24 -7 -22 -17 -22 -19 -8 -41 12 -18 12
-22 1 -20 -7 2 -20 9 -27 16 -8 7 -19 9 -25 5 -7 -4 -18 -8 -25 -9 -11 -2 -11
0 0 13 7 9 12 19 11 22 -2 3 5 6 15 7 43 2 49 5 47 22 -3 35 -16 49 -40 44
-24 -4 -40 -27 -30 -42 3 -5 1 -11 -5 -15 -5 -3 -10 -2 -10 4 0 13 -51 -5 -61
-20 -4 -7 -9 -4 -12 5 -4 10 -1 16 7 16 16 0 17 31 1 47 -9 9 -18 8 -39 -2
-25 -13 -26 -13 -22 10 3 17 -2 29 -15 39 -23 16 -16 42 13 52 16 5 18 8 7 15
-8 5 -10 9 -5 9 6 0 0 9 -12 20 -12 11 -19 27 -16 34 8 22 31 9 30 -17 -1 -19
4 -22 34 -22 30 0 35 3 37 27 2 30 -21 43 -59 34 -13 -3 -17 -3 -10 0 6 3 9
11 5 17 -11 17 -12 37 -3 37 4 0 11 -7 14 -16 5 -13 9 -14 21 -4 8 7 15 9 15
4 0 -5 5 -1 11 9 8 14 8 22 0 30 -6 6 -11 16 -11 21 0 6 7 3 16 -6 13 -12 23
-14 40 -7z m604 -367 c0 -3 -6 -12 -14 -19 -17 -17 -30 -7 -15 12 12 13 29 18
29 7z m-360 -24 c0 -5 -4 -10 -10 -10 -5 0 -10 5 -10 10 0 6 5 10 10 10 6 0
10 -4 10 -10z m880 -253 c0 -4 4 -6 9 -3 15 9 53 -41 58 -77 4 -29 -1 -40 -26
-66 -17 -17 -35 -31 -41 -32 -52 -6 -83 7 -103 41 -18 31 -23 80 -7 80 5 0 7
6 4 13 -6 16 52 51 68 41 6 -4 8 -3 4 4 -4 7 1 10 14 9 11 -1 20 -5 20 -10z"/>
<path d="M2752 6918 c-7 -7 -12 -9 -12 -5 0 4 -9 3 -19 -3 -17 -8 -18 -15 -10
-38 10 -30 37 -37 58 -15 6 7 9 13 5 13 -3 0 -1 7 6 15 10 12 9 16 -4 21 -9 3
-13 10 -10 15 8 13 0 11 -14 -3z"/>
<path d="M2785 6857 c-12 -6 -13 -12 -6 -21 11 -13 2 -16 -46 -16 -13 0 -23
-4 -24 -8 0 -4 -2 -15 -4 -25 -4 -19 22 -37 54 -37 18 0 21 5 16 33 -3 21 -2
27 4 18 7 -11 9 -11 14 0 4 10 6 10 6 2 1 -10 7 -10 26 -1 34 15 33 64 -2 64
-12 0 -30 -4 -38 -9z"/>
<path d="M2575 6800 c-8 -26 16 -62 35 -50 8 5 18 6 24 3 5 -4 7 1 3 11 -4 10
-3 15 3 11 17 -11 11 11 -8 28 -25 23 -49 21 -57 -3z"/>
<path d="M2670 6773 c-9 -2 -21 -13 -29 -24 -7 -12 -8 -18 -3 -15 5 3 9 -2 8
-12 -1 -12 8 -18 29 -20 27 -3 31 0 33 23 2 30 -16 52 -38 48z"/>
<path d="M2786 6769 c3 -5 1 -16 -5 -23 -7 -9 -6 -19 5 -34 15 -21 16 -21 47
-5 18 9 27 18 21 20 -7 2 -9 14 -6 26 3 12 2 19 -2 15 -4 -3 -21 -2 -37 2 -19
6 -27 5 -23 -1z"/>
<path d="M2508 6759 c-17 -9 -15 -30 4 -56 12 -15 55 3 61 26 9 38 -24 54 -65
30z"/>
<path d="M2470 6724 c0 -7 -8 -11 -17 -10 -22 1 -30 -38 -11 -57 15 -17 40
-12 55 12 8 13 7 23 -8 42 -10 13 -19 19 -19 13z"/>
<path d="M2582 6712 c-29 -25 -13 -62 27 -62 17 0 31 -6 35 -16 4 -9 2 -13 -5
-8 -7 4 -7 0 1 -15 6 -13 16 -19 23 -14 7 4 23 9 36 11 22 3 22 2 7 -13 -21
-22 -21 -24 10 -36 37 -13 59 -4 62 26 2 27 -29 48 -55 38 -11 -4 -18 14 -15
38 1 4 -8 9 -18 12 -11 3 -20 2 -20 -2 0 -4 -10 -7 -22 -8 -13 0 -17 1 -10 4
10 4 10 8 0 21 -10 12 -10 14 0 8 23 -13 12 1 -12 18 -23 14 -26 14 -44 -2z"/>
<path d="M2720 6720 c-8 -5 -11 -10 -6 -10 5 0 3 -6 -3 -14 -8 -10 -9 -16 -1
-21 6 -3 8 -11 5 -16 -10 -15 42 -10 55 6 15 19 3 58 -16 51 -9 -3 -12 -1 -9
4 8 13 -5 13 -25 0z"/>
<path d="M2791 6667 c-1 -10 -5 -15 -11 -12 -14 9 -12 -18 3 -38 12 -17 40
-19 64 -4 9 6 9 15 1 38 -8 23 -13 27 -19 17 -7 -10 -9 -10 -9 2 0 12 -2 13
-9 1 -7 -11 -9 -11 -14 0 -4 10 -6 8 -6 -4z"/>
<path d="M2786 6559 c-16 -16 -17 -21 -5 -36 7 -10 14 -19 15 -21 1 -2 13 0
28 4 21 5 25 11 21 31 -7 43 -29 51 -59 22z"/>
<path d="M2718 6513 c-11 -12 -13 -25 -8 -39 9 -23 33 -25 65 -6 16 9 17 13 6
21 -7 5 -10 14 -7 20 4 6 3 11 -3 11 -5 0 -16 2 -23 5 -8 3 -21 -2 -30 -12z"/>
<path d="M2646 6476 c3 -9 2 -16 -4 -16 -25 0 0 -46 27 -52 8 -2 25 -15 38
-30 32 -36 70 -33 64 5 0 4 4 7 9 7 17 0 11 20 -7 27 -10 4 -21 11 -25 17 -5
7 -8 7 -8 -1 0 -7 -6 -13 -14 -13 -8 0 -16 -6 -19 -12 -2 -7 -2 0 0 15 5 29
-13 61 -29 51 -5 -3 -16 0 -24 7 -12 10 -13 9 -8 -5z"/>
<path d="M2851 6308 c-6 -17 -4 -27 8 -39 22 -22 34 -20 56 9 10 14 13 22 6
18 -8 -6 -11 -2 -9 10 5 31 -50 32 -61 2z"/>
<path d="M2233 6274 c-5 -11 -9 -26 -9 -34 1 -19 48 -43 57 -29 4 7 9 4 12 -5
4 -9 1 -16 -5 -16 -6 0 -3 -8 8 -19 23 -23 33 -22 57 3 26 29 22 49 -9 45 -4
0 -11 5 -15 13 -6 9 -9 10 -9 1 0 -7 -7 -10 -15 -7 -8 4 -15 15 -15 25 0 17
-6 21 -26 18 -4 0 -10 5 -14 11 -6 9 -10 7 -17 -6z"/>
<path d="M2396 6183 c-4 -5 -13 -8 -19 -8 -7 0 -12 -5 -12 -12 0 -6 -3 -15 -7
-19 -11 -10 31 -44 47 -38 8 3 21 17 30 30 15 23 14 25 -2 31 -10 4 -21 10
-24 15 -3 5 -9 5 -13 1z"/>
<path d="M2512 6174 c-8 -8 -11 -22 -8 -30 3 -7 0 -14 -7 -15 -7 -1 -21 -2
-32 -2 -11 -1 -21 -6 -22 -11 -1 -5 -7 -13 -15 -17 -10 -7 -10 -9 0 -9 7 0 10
-4 7 -10 -6 -9 8 -14 28 -11 4 0 7 -3 7 -7 0 -5 6 -9 13 -9 13 0 17 11 18 50
0 14 3 16 13 8 9 -7 16 -7 23 0 7 7 17 1 32 -20 13 -17 30 -31 39 -31 22 0 46
36 31 46 -6 3 -8 12 -5 19 4 11 -12 13 -34 5 -3 -1 -8 -2 -12 -1 -5 0 -8 -3
-8 -9 0 -5 -5 -10 -10 -10 -7 0 -7 6 0 19 7 14 7 22 0 26 -6 4 -7 11 -4 17 4
7 2 8 -4 4 -7 -4 -12 -1 -12 6 0 10 -2 10 -9 -1 -5 -7 -10 -9 -12 -3 -2 6 -10
4 -17 -4z"/>
<path d="M2233 6168 c-23 -32 11 -73 44 -52 23 14 25 42 3 54 -25 13 -36 13
-47 -2z"/>
<path d="M2166 6124 c-10 -7 -15 -17 -11 -23 3 -6 1 -11 -6 -11 -9 0 -9 -3 1
-14 6 -8 18 -12 26 -9 8 3 14 -1 14 -8 0 -9 7 -6 21 8 38 37 -2 89 -45 57z"/>
<path d="M2294 6109 c-23 -24 -25 -29 -9 -23 16 6 18 4 8 -6 -9 -10 -15 -11
-27 -1 -17 15 -46 -9 -42 -36 6 -42 71 -41 71 2 0 10 8 19 18 21 9 1 17 -3 17
-9 0 -8 3 -7 9 1 4 8 12 13 17 13 8 -1 9 8 5 39 0 5 -9 14 -20 19 -14 8 -24 4
-47 -20z"/>
<path d="M1874 5715 c3 -8 1 -15 -4 -15 -5 0 -7 -7 -4 -15 4 -8 1 -15 -5 -15
-6 0 -11 -5 -11 -11 0 -6 -6 -16 -12 -23 -7 -8 -20 -23 -28 -35 -8 -11 -19
-21 -24 -21 -5 0 -18 -8 -29 -17 -15 -13 -18 -14 -12 -3 8 13 6 13 -8 2 -9 -8
-21 -11 -26 -8 -5 4 -13 2 -16 -4 -4 -6 -3 -10 2 -9 16 4 63 -13 63 -23 0 -5
4 -7 9 -3 5 3 12 1 16 -5 4 -6 11 -8 16 -5 5 4 9 1 9 -5 0 -6 11 -23 25 -38
14 -15 23 -32 21 -39 -3 -6 0 -13 5 -15 6 -2 11 -11 13 -20 4 -31 12 -28 14 5
3 31 21 66 51 98 21 22 77 50 85 42 3 -4 6 -1 6 5 0 7 7 9 18 5 9 -3 14 -3 10
1 -3 4 -12 9 -20 10 -40 8 -68 19 -68 27 0 5 -6 9 -13 9 -25 0 -71 76 -70 118
0 12 -4 22 -9 22 -6 0 -8 -7 -4 -15z"/>
<path d="M1433 5467 c-4 -54 -10 -72 -23 -69 -6 1 -9 -2 -5 -8 10 -16 -37 -90
-84 -132 -48 -44 -128 -91 -142 -83 -5 4 -9 1 -9 -5 0 -6 -4 -9 -9 -5 -5 3
-12 1 -16 -5 -4 -6 -11 -8 -16 -5 -5 4 -9 1 -9 -5 0 -6 -6 -8 -12 -4 -7 4 -9
3 -5 -2 4 -4 20 -10 35 -11 15 -2 33 -4 40 -5 6 -1 12 -6 12 -11 0 -5 9 -7 20
-4 12 3 25 -1 33 -11 6 -10 18 -18 24 -19 17 -4 83 -69 83 -82 0 -6 6 -11 14
-11 13 0 32 -44 27 -63 -1 -5 3 -6 9 -2 5 3 10 -1 10 -9 0 -9 5 -16 10 -16 6
0 9 -3 9 -7 -6 -36 3 -63 20 -63 15 0 18 6 15 31 -2 18 0 28 6 24 6 -3 10 3
10 14 0 26 70 129 93 137 9 3 15 10 12 15 -4 5 0 9 8 9 8 0 18 7 21 16 3 8 10
12 16 9 5 -3 10 -1 10 4 0 6 9 11 21 11 13 0 18 4 13 12 -5 8 -2 9 9 5 10 -3
17 -3 17 2 0 8 15 11 62 13 21 0 24 3 15 13 -7 7 -15 11 -19 8 -5 -2 -8 1 -8
7 0 7 -7 10 -15 7 -8 -4 -17 -2 -20 4 -4 5 -11 7 -16 4 -5 -4 -9 -1 -9 5 0 7
-7 9 -15 6 -9 -3 -18 1 -21 9 -4 8 -10 12 -15 9 -5 -3 -9 0 -9 7 0 7 -3 9 -6
6 -11 -11 -125 114 -132 144 -2 8 -9 20 -15 28 -6 7 -12 25 -12 40 0 17 -6 25
-15 23 -10 -2 -11 0 -2 11 10 11 9 17 0 25 -10 8 -14 3 -15 -21z"/>
<path d="M4332 5106 c-25 -14 -28 -21 -26 -73 0 -26 -4 -51 -10 -55 -7 -5 -7
-8 -1 -8 13 0 13 -179 1 -199 -6 -9 -5 -12 1 -8 13 8 11 -52 -2 -73 -5 -8 -4
-11 1 -7 6 3 10 -19 10 -53 0 -38 -4 -56 -11 -52 -7 4 -6 1 1 -9 12 -17 12
-98 0 -118 -6 -9 -5 -12 0 -8 6 3 10 -15 10 -43 0 -28 -4 -46 -10 -43 -5 4 -6
1 0 -8 13 -21 13 -163 0 -171 -7 -5 -7 -8 -1 -8 13 0 13 -179 1 -199 -6 -9 -5
-12 0 -8 13 7 12 -112 0 -132 -7 -10 -5 -12 4 -6 9 5 10 2 6 -12 -4 -13 1 -26
15 -39 17 -16 37 -19 116 -19 75 0 96 3 102 15 9 20 7 613 -3 628 -4 7 -3 12
2 12 11 0 9 50 -2 68 -3 6 -2 13 4 17 6 4 7 11 4 17 -4 7 -2 8 4 4 7 -4 12 -3
12 1 0 5 11 10 25 11 38 3 49 6 57 17 5 6 8 4 8 -5 0 -13 1 -13 10 0 9 13 10
13 10 0 0 -13 1 -13 10 0 9 13 10 13 10 0 0 -13 1 -13 10 0 9 13 10 13 10 0 0
-13 1 -13 10 0 7 11 10 11 10 2 0 -10 5 -10 20 -2 14 7 20 7 20 0 0 -5 16 -10
35 -10 20 0 43 -6 52 -12 41 -33 73 -72 69 -84 -3 -7 2 -15 11 -18 12 -5 13
-9 3 -21 -10 -12 -10 -18 -1 -29 7 -8 8 -17 3 -20 -11 -6 -10 -125 1 -143 4
-6 4 -14 -1 -17 -5 -3 -8 -68 -7 -146 0 -78 -3 -144 -8 -147 -4 -2 -4 -10 1
-16 5 -7 8 -25 7 -40 -1 -15 2 -30 6 -33 5 -2 6 -10 3 -18 -8 -22 37 -32 131
-30 50 1 92 2 95 3 8 2 5 685 -4 699 -4 7 -10 25 -12 40 -10 52 -101 181 -118
165 -3 -3 -6 1 -6 10 0 10 -8 17 -20 17 -11 0 -20 5 -20 11 0 5 -4 7 -10 4 -5
-3 -10 -1 -10 4 0 6 -9 11 -20 11 -11 0 -20 6 -20 13 0 8 -4 7 -10 -3 -7 -11
-10 -11 -10 -2 0 7 -4 10 -10 7 -5 -3 -10 -3 -10 2 0 4 -15 9 -33 11 -30 2
-66 8 -77 12 -3 1 -9 2 -13 1 -43 -8 -67 -7 -67 3 0 6 -4 5 -9 -3 -5 -7 -13
-11 -19 -7 -6 3 -13 0 -15 -6 -4 -10 -6 -10 -6 0 -1 10 -6 10 -21 2 -11 -6
-28 -10 -38 -8 -10 2 -16 -2 -14 -11 3 -12 0 -12 -11 -2 -12 9 -16 9 -20 -1
-3 -7 -4 21 -3 62 1 41 -2 81 -7 88 -5 6 -6 12 -1 12 13 0 11 220 -1 221 -51
6 -190 2 -203 -5z"/>
<path d="M6354 5107 c-8 -4 -14 -15 -14 -22 0 -8 -4 -15 -9 -15 -6 0 -6 -12
-1 -30 6 -21 5 -30 -3 -30 -7 0 -6 -4 3 -10 10 -6 11 -10 3 -10 -9 0 -10 -7
-3 -25 7 -17 6 -25 -1 -25 -8 0 -7 -5 1 -15 8 -9 8 -15 2 -15 -7 0 -8 -10 -2
-30 6 -21 5 -30 -3 -30 -7 0 -6 -4 3 -10 10 -6 11 -10 3 -10 -9 0 -10 -7 -3
-25 7 -17 6 -25 -1 -25 -8 0 -7 -5 1 -15 8 -9 8 -15 2 -15 -7 0 -8 -10 -2 -30
6 -21 5 -30 -3 -30 -7 0 -6 -4 3 -10 10 -6 11 -10 3 -10 -9 0 -10 -7 -3 -25 7
-17 6 -25 -1 -25 -8 0 -7 -5 1 -15 8 -9 8 -15 2 -15 -7 0 -8 -10 -2 -30 6 -21
5 -30 -3 -30 -7 0 -6 -4 3 -10 10 -6 11 -10 3 -10 -9 0 -10 -7 -3 -25 7 -17 6
-25 -1 -25 -8 0 -7 -5 1 -15 7 -8 8 -15 3 -15 -11 0 -11 -29 0 -47 4 -6 2 -15
-4 -19 -8 -4 -7 -9 2 -15 12 -7 12 -9 0 -9 -11 0 -11 -3 -1 -15 7 -9 8 -15 2
-15 -6 0 -7 -13 -2 -35 5 -23 4 -36 -4 -39 -8 -3 -8 -5 0 -5 8 -1 9 -14 4 -40
-4 -21 -3 -46 2 -55 6 -11 5 -16 -4 -16 -9 0 -9 -3 2 -10 12 -8 13 -11 1 -19
-11 -7 -11 -9 0 -14 9 -3 9 -6 2 -6 -8 -1 -9 -11 -2 -36 6 -19 7 -40 4 -45 -3
-6 -1 -10 4 -10 6 0 11 -11 11 -25 0 -14 5 -25 10 -25 6 0 10 -7 10 -15 0 -20
89 -110 118 -119 12 -4 22 -12 22 -17 0 -6 3 -8 8 -6 4 3 18 0 32 -6 33 -13
49 -17 83 -19 15 0 27 -5 27 -11 0 -5 7 -4 15 3 8 7 15 9 15 4 0 -5 27 -9 60
-9 33 0 60 4 60 8 0 5 9 6 19 2 11 -3 22 -2 25 3 3 5 16 9 28 8 13 -1 26 2 29
7 3 5 12 10 20 11 35 7 66 25 96 58 9 9 20 15 25 12 4 -3 8 0 8 5 0 10 25 43
58 77 7 8 11 14 8 14 -4 0 3 18 14 40 11 22 18 40 14 40 -4 0 -2 6 4 13 5 6
11 26 13 42 2 17 7 36 12 43 6 8 5 12 -4 12 -10 0 -11 2 -2 8 14 9 15 252 1
252 -6 0 -8 7 -4 15 6 17 -33 133 -51 153 -7 7 -13 18 -13 23 0 14 -112 119
-122 113 -4 -3 -8 -1 -8 4 0 12 -137 55 -149 47 -5 -3 -12 -1 -15 4 -3 5 -16
7 -28 3 -16 -4 -19 -2 -13 8 6 10 4 11 -6 4 -21 -13 -39 -14 -39 -2 0 6 -7 4
-17 -3 -15 -12 -16 -12 -8 1 7 12 6 13 -6 4 -8 -6 -30 -11 -49 -12 -20 -2 -46
-4 -57 -7 -22 -4 -22 -2 -25 157 -2 88 0 162 4 164 10 6 -3 44 -16 45 -47 5
-190 2 -202 -4z m296 -549 c0 14 21 12 32 -3 5 -6 8 -6 8 2 0 11 45 11 57 -1
3 -3 12 -1 20 5 10 9 13 8 13 -1 0 -8 8 -10 21 -7 12 3 22 0 26 -9 3 -8 8 -12
13 -9 20 12 96 -104 86 -131 -3 -9 -1 -12 4 -9 6 3 10 -4 11 -17 0 -13 2 -35
4 -50 2 -15 -1 -30 -6 -34 -5 -3 -6 -10 -3 -16 9 -14 11 -138 2 -138 -4 0 -5
-9 -3 -20 2 -11 -1 -20 -6 -20 -6 0 -7 -5 -4 -10 4 -6 2 -16 -3 -23 -10 -12
-12 -18 -12 -37 0 -5 -7 -10 -16 -10 -8 0 -13 -4 -10 -8 8 -13 -37 -46 -76
-57 -5 -2 -11 -4 -15 -5 -22 -7 -139 3 -144 12 -4 6 -12 7 -18 4 -6 -4 -14 0
-17 8 -3 9 -12 16 -20 16 -8 0 -11 6 -7 17 4 11 3 14 -5 9 -9 -5 -12 59 -12
263 l0 271 23 1 c12 1 25 1 30 0 4 0 7 5 7 12 0 8 4 7 10 -3 6 -10 10 -11 10
-2z"/>
<path d="M2134 5056 c-3 -14 -3 -30 1 -35 3 -6 1 -11 -5 -11 -6 0 -8 -5 -4
-12 4 -6 8 -32 8 -57 1 -25 5 -52 9 -58 5 -7 5 -17 2 -23 -3 -5 1 -10 9 -10 9
0 16 -5 16 -10 0 -7 6 -7 20 0 11 6 20 7 20 3 0 -10 75 -7 90 2 6 3 10 0 10
-7 0 -9 3 -9 10 2 5 8 10 10 10 4 0 -12 29 -12 48 0 7 4 12 2 12 -5 0 -8 4 -8
15 1 10 8 15 9 15 1 0 -7 8 -8 25 -1 18 7 25 6 25 -3 0 -8 4 -7 10 3 5 8 10
10 10 4 0 -12 29 -12 48 0 7 4 12 2 12 -4 0 -8 6 -7 21 1 15 8 19 8 15 0 -5
-8 0 -8 18 -1 19 7 26 6 26 -3 0 -8 4 -7 10 3 5 8 10 10 10 4 0 -12 29 -12 48
0 7 4 12 2 12 -5 0 -8 4 -8 15 1 10 8 15 9 15 1 0 -7 8 -8 25 -1 18 7 25 6 25
-3 0 -8 4 -7 10 3 5 8 10 10 10 4 0 -12 29 -12 49 1 10 6 12 4 7 -6 -4 -8 1
-4 10 9 18 23 26 122 10 122 -5 0 -3 7 4 15 10 12 10 15 -1 15 -11 0 -11 2 -2
8 15 9 9 52 -9 63 -7 4 -16 3 -20 -4 -4 -7 -8 -7 -8 -2 0 6 -111 10 -312 10
-197 0 -316 -4 -320 -10 -5 -6 -8 -6 -8 2 0 8 -9 9 -30 3 -19 -5 -28 -5 -25 1
4 5 2 9 -4 9 -6 0 -13 -11 -17 -24z"/>
<path d="M3195 5072 c-67 -4 -88 -24 -83 -79 2 -24 1 -43 -3 -43 -3 0 -3 -22
1 -50 4 -27 3 -50 -1 -50 -4 0 -4 -13 1 -30 5 -16 5 -30 1 -30 -4 0 -5 -22 -1
-50 4 -27 3 -50 -1 -50 -4 0 -4 -13 1 -30 5 -16 5 -30 1 -30 -4 0 -5 -22 -1
-50 4 -27 3 -50 -1 -50 -4 0 -4 -13 1 -30 5 -16 6 -30 2 -30 -4 0 -5 -40 -2
-90 3 -50 2 -90 -2 -90 -4 0 -3 -13 2 -30 5 -16 6 -30 2 -30 -4 0 -5 -45 -2
-100 3 -55 3 -100 0 -100 -3 0 -4 -55 -2 -122 3 -100 6 -126 20 -138 14 -13
57 -15 277 -15 143 0 266 4 274 9 10 7 12 6 6 -3 -6 -10 -3 -11 14 -2 12 7 26
9 31 6 6 -3 10 -2 10 3 0 5 8 9 18 9 23 -1 74 14 89 25 7 5 17 7 23 3 5 -3 10
-1 10 4 0 6 7 11 15 11 8 0 15 5 15 11 0 5 5 7 10 4 6 -3 10 -1 10 4 0 6 7 11
15 11 9 0 18 7 21 15 4 8 10 15 15 15 8 0 97 87 98 96 1 2 1 9 1 15 0 5 5 7
12 3 8 -5 9 -2 5 9 -4 10 0 20 9 25 9 5 15 12 15 15 -1 4 6 23 14 43 8 20 15
42 15 50 0 7 5 16 11 20 8 4 7 9 -2 15 -10 6 -10 9 -2 9 8 0 11 11 9 30 -2 16
0 27 4 25 4 -3 10 4 13 15 3 13 1 18 -5 13 -7 -4 -8 -1 -3 8 5 7 10 37 10 65
1 28 5 56 9 62 3 5 0 13 -6 16 -11 5 -11 7 0 12 6 3 9 11 5 17 -4 7 -8 35 -9
62 -1 28 -3 50 -4 50 -2 0 -7 29 -11 73 -2 17 -6 32 -9 32 -4 0 -7 6 -8 13 -2
24 -8 47 -15 53 -4 4 -7 13 -7 21 0 15 -60 116 -72 121 -5 2 -6 8 -2 13 3 5 1
9 -5 9 -5 0 -25 15 -44 33 -19 17 -43 39 -53 47 -25 20 -110 60 -127 60 -8 0
-17 3 -21 7 -7 7 -24 12 -71 18 -16 2 -30 4 -30 5 0 3 -92 11 -148 13 -33 1
-57 -2 -57 -8 0 -7 -3 -7 -8 0 -7 10 -188 14 -297 7z m435 -225 c19 -1 41 -7
49 -11 10 -7 12 -5 6 5 -6 11 -5 12 6 2 7 -7 20 -13 29 -13 40 0 150 -80 150
-109 0 -7 5 -9 10 -6 6 3 10 0 10 -7 0 -7 6 -25 14 -40 15 -29 27 -76 32 -123
2 -16 6 -43 9 -59 4 -19 1 -32 -7 -37 -8 -6 -9 -9 -2 -9 12 0 14 -115 3 -135
-3 -5 -5 -25 -4 -42 1 -18 -2 -33 -6 -33 -4 0 -10 -7 -13 -16 -3 -8 -2 -12 3
-9 5 3 2 -13 -6 -35 -9 -22 -20 -40 -26 -40 -5 0 -6 -7 -3 -16 3 -8 2 -12 -4
-9 -6 3 -10 1 -10 -5 0 -5 -13 -24 -30 -42 -16 -17 -30 -28 -30 -24 0 4 -7 0
-16 -8 -8 -9 -20 -14 -25 -11 -5 4 -9 1 -9 -5 0 -6 -4 -8 -10 -5 -5 3 -10 2
-10 -3 0 -5 -6 -9 -12 -10 -7 -1 -24 -3 -38 -5 -14 -1 -29 -5 -35 -9 -5 -3
-76 -6 -157 -6 l-146 0 1 69 c1 40 -2 69 -8 69 -7 0 -7 3 0 8 12 8 14 112 2
112 -5 0 -5 5 -2 10 9 15 9 145 1 159 -4 6 -3 11 1 11 5 0 9 9 9 20 0 11 -5
20 -11 20 -6 0 -7 3 0 8 6 4 10 16 10 27 0 11 -4 23 -10 27 -7 5 -7 8 0 8 6 0
10 14 10 30 0 17 -4 30 -10 30 -7 0 -7 3 0 8 13 9 14 82 0 82 -6 0 -7 3 0 8 6
4 10 18 10 32 0 14 -4 28 -10 32 -6 5 -5 8 3 8 10 0 10 5 2 20 -8 14 -8 20 0
20 6 0 8 5 5 11 -4 5 -4 20 -1 32 5 21 9 22 123 20 65 -1 134 -4 153 -6z"/>
<path d="M1430 4816 c0 -2 7 -9 15 -16 13 -11 14 -10 9 4 -5 14 -24 23 -24 12z"/>
<path d="M5800 4764 c0 -6 -30 -11 -80 -11 -46 0 -86 -5 -94 -12 -11 -9 -15
-9 -18 0 -3 8 -9 7 -20 -4 -8 -9 -18 -14 -21 -11 -3 3 -16 0 -29 -7 -12 -7
-28 -14 -35 -15 -20 -4 -102 -69 -103 -82 0 -7 -4 -10 -10 -7 -5 3 -10 -1 -10
-9 0 -9 -4 -16 -10 -16 -5 0 -10 -7 -10 -15 0 -8 -4 -15 -9 -15 -8 0 -11 -8
-20 -45 -2 -5 -6 -14 -10 -20 -9 -11 -25 -69 -19 -71 2 0 -4 -9 -12 -19 -9
-11 -10 -16 -2 -11 6 4 12 2 12 -3 0 -6 -4 -11 -9 -11 -6 0 -8 -9 -6 -20 2
-11 -1 -20 -6 -20 -6 0 -6 -7 1 -19 5 -11 7 -22 3 -24 -10 -6 -9 -119 1 -135
3 -6 2 -14 -4 -17 -7 -4 -8 -11 -2 -18 5 -7 14 -32 20 -57 14 -65 16 -74 22
-80 3 -3 14 -23 25 -45 11 -22 36 -55 55 -75 19 -19 33 -39 32 -43 -1 -5 2 -6
8 -2 5 3 10 1 10 -5 0 -6 5 -8 10 -5 6 3 10 2 10 -4 0 -6 11 -13 25 -17 14 -3
25 -10 25 -16 0 -5 3 -7 8 -5 4 3 18 0 32 -6 46 -19 92 -26 187 -30 39 -1 69
1 67 4 -2 4 9 7 24 7 40 0 72 6 72 12 0 3 12 7 28 8 15 1 32 8 37 16 6 7 12
13 15 14 24 4 58 24 64 37 3 9 10 13 16 10 5 -3 10 -2 10 2 0 5 11 20 24 34
27 29 79 123 82 148 4 28 13 61 19 71 3 6 0 10 -7 10 -9 0 -9 3 2 10 8 5 11
10 5 10 -5 0 -3 5 5 10 11 7 11 10 2 10 -7 0 -10 5 -6 11 11 18 11 82 1 103
-6 13 -6 16 2 12 7 -5 10 4 7 26 -3 18 -5 33 -6 33 -2 0 -12 72 -13 98 -1 9
-4 17 -8 17 -4 0 -10 15 -13 34 -4 19 -13 39 -21 46 -8 7 -13 16 -10 20 2 4
-5 16 -15 28 -11 12 -20 25 -20 29 -2 20 -144 117 -167 114 -2 0 -21 6 -43 14
-22 8 -49 12 -60 10 -11 -2 -24 3 -30 13 -5 9 -10 12 -10 6z m28 -217 c12 0
22 -5 22 -9 0 -4 6 -8 14 -8 27 0 88 -87 90 -130 1 -8 4 -19 8 -25 3 -5 5 -31
4 -58 0 -26 4 -49 9 -51 7 -3 7 -7 0 -13 -5 -4 -10 -35 -11 -68 -1 -69 -9
-111 -23 -129 -6 -7 -8 -15 -6 -18 3 -3 -7 -19 -23 -36 -16 -17 -27 -34 -23
-37 3 -4 2 -6 -4 -5 -5 1 -12 1 -15 0 -3 -1 -12 -3 -20 -5 -38 -8 -45 -11 -52
-20 -5 -6 -8 -5 -8 4 0 11 -3 11 -16 0 -13 -10 -17 -10 -25 2 -5 8 -9 9 -9 3
0 -6 -7 -11 -15 -11 -8 0 -15 4 -15 8 0 4 -9 6 -20 4 -11 -2 -20 2 -20 8 0 8
-3 8 -9 -1 -7 -11 -11 -11 -24 2 -8 9 -20 16 -26 16 -15 0 -57 60 -70 100 -6
19 -12 55 -13 80 -2 25 -7 48 -13 52 -6 5 -5 8 3 8 8 0 10 5 5 13 -12 19 -12
37 -1 37 6 0 5 6 -2 15 -7 8 -8 15 -3 15 5 0 9 12 8 28 -1 23 4 52 20 112 2 8
4 18 4 21 2 16 69 76 96 87 34 13 85 19 130 14 17 -2 40 -4 53 -5z"/>
<path d="M7749 4765 c-3 -3 -32 -8 -65 -11 -32 -4 -65 -12 -73 -18 -11 -8 -13
-8 -8 1 5 8 -2 7 -20 -2 -15 -8 -34 -15 -40 -15 -7 0 -13 -5 -13 -11 0 -6 -7
-8 -16 -5 -8 3 -12 2 -9 -3 3 -5 -3 -12 -14 -16 -11 -3 -22 -13 -25 -21 -3 -8
-10 -12 -16 -9 -5 3 -10 1 -10 -4 0 -6 -9 -20 -20 -31 -27 -27 -85 -148 -88
-183 -1 -15 -7 -37 -13 -49 -8 -16 -8 -19 1 -13 9 5 9 3 2 -11 -14 -28 -13
-236 1 -253 10 -12 9 -13 -2 -6 -11 6 -12 5 -5 -6 5 -8 10 -25 12 -39 2 -13 7
-27 11 -30 5 -3 7 -13 6 -22 -2 -9 3 -22 11 -29 8 -6 11 -15 8 -20 -3 -5 0 -9
5 -9 6 0 11 -7 11 -16 0 -8 7 -23 15 -32 48 -53 92 -92 103 -92 6 0 12 -4 12
-9 0 -5 10 -12 23 -16 30 -10 36 -12 42 -15 3 -1 10 -4 15 -5 6 -1 11 -3 13
-5 8 -6 91 -18 167 -24 19 -1 45 1 58 5 14 5 22 5 22 -2 0 -6 5 -7 13 -2 6 4
20 8 30 9 9 1 19 3 22 4 3 1 14 4 25 5 11 1 21 3 23 4 1 2 13 5 27 7 43 8 114
37 134 56 16 15 20 32 20 103 0 47 -3 87 -6 90 -3 4 -23 -1 -44 -10 -22 -9
-48 -18 -58 -21 -11 -2 -22 -7 -25 -11 -3 -5 -19 -8 -36 -8 -16 0 -33 -3 -36
-8 -3 -4 -50 -8 -105 -7 -125 1 -134 2 -134 11 0 5 -7 6 -15 3 -8 -4 -17 1
-21 9 -3 9 -12 13 -20 10 -8 -3 -14 -1 -14 4 0 5 -8 18 -17 29 -43 46 -64 139
-33 139 8 0 20 4 27 8 6 4 14 4 17 -1 4 -7 116 -9 124 -2 3 3 40 3 50 0 20 -7
58 -4 64 5 5 6 8 6 8 -2 0 -6 9 -9 22 -5 15 4 19 2 13 -7 -5 -10 -3 -11 11 -4
11 5 30 9 44 8 14 0 28 4 32 10 5 7 8 7 8 -1 0 -8 57 -12 68 -4 3 3 41 3 45 0
7 -7 75 -5 71 2 -3 4 -1 8 3 8 5 0 8 46 7 103 -1 56 -3 102 -4 102 -3 0 -11
40 -12 63 0 12 -4 22 -9 22 -4 0 -6 9 -4 20 2 11 0 20 -5 20 -5 0 -14 16 -21
35 -7 19 -17 35 -21 35 -4 0 -8 7 -8 15 0 8 -4 15 -10 15 -5 0 -10 7 -10 15 0
8 -3 15 -7 15 -5 0 -22 14 -40 30 -18 17 -37 30 -42 30 -6 0 -11 3 -11 8 0 9
-53 33 -79 35 -12 1 -21 5 -21 10 0 5 -9 5 -20 2 -12 -4 -20 -2 -20 5 0 6 -4
9 -9 5 -5 -3 -12 -1 -16 4 -3 6 -15 7 -29 1 -14 -5 -27 -5 -33 1 -5 5 -12 7
-14 4z m16 -205 c0 -1 14 -4 30 -6 17 -3 32 -9 33 -15 2 -5 8 -9 13 -9 32 0
99 -117 103 -180 2 -22 -2 -25 -36 -27 -24 -1 -36 3 -31 10 4 6 1 7 -8 2 -20
-13 -160 -14 -152 -2 4 6 1 7 -8 2 -7 -5 -33 -9 -58 -10 -33 -1 -51 5 -70 22
-15 12 -20 23 -13 23 7 0 10 4 7 10 -9 15 13 84 35 108 12 12 18 22 15 22 -15
0 21 26 38 28 11 0 24 7 28 14 5 7 9 9 9 4 0 -6 4 -6 10 0 8 8 55 12 55 4z"/>
<path d="M8710 4762 c0 -4 -10 -8 -22 -8 -13 -1 -39 -4 -58 -8 -19 -4 -41 -8
-47 -8 -7 -1 -13 -6 -13 -11 0 -6 -3 -7 -7 -4 -3 4 -17 0 -30 -8 -13 -9 -23
-13 -23 -10 0 3 -9 -3 -19 -12 -10 -10 -35 -32 -54 -50 -19 -17 -32 -34 -29
-37 3 -3 0 -6 -6 -6 -7 0 -12 -6 -12 -14 0 -8 -7 -17 -16 -20 -9 -4 -14 -9
-11 -12 8 -8 -13 -64 -24 -64 -5 0 -7 -11 -5 -24 2 -14 -1 -29 -8 -35 -7 -6
-11 -26 -10 -46 2 -20 -1 -35 -8 -35 -7 0 -6 -5 2 -15 10 -12 10 -15 -1 -15
-12 0 -12 -2 0 -9 9 -6 10 -11 2 -15 -6 -4 -9 -12 -5 -17 3 -5 0 -17 -7 -25
-10 -13 -10 -17 1 -24 7 -4 10 -15 7 -23 -3 -9 -1 -18 6 -21 9 -3 8 -5 -1 -5
-7 -1 -10 -6 -6 -13 4 -6 8 -30 10 -52 1 -23 3 -43 4 -46 2 -3 4 -9 5 -15 1
-5 5 -19 10 -30 31 -83 41 -103 47 -99 5 3 8 -1 8 -8 0 -31 131 -145 152 -132
4 3 8 0 8 -5 0 -6 9 -11 19 -11 11 0 22 -4 26 -10 3 -5 13 -6 22 -3 11 4 14 3
9 -5 -4 -8 -2 -10 8 -6 8 3 30 1 50 -4 26 -8 36 -7 36 1 0 8 3 8 8 2 10 -14
52 -12 227 10 11 1 24 3 28 4 5 0 6 5 3 9 -3 5 5 8 17 7 12 -1 27 2 34 7 7 5
16 7 22 4 5 -3 12 1 15 10 3 8 10 13 15 10 4 -3 19 3 31 14 13 11 19 20 14 20
-5 0 -2 5 6 10 13 8 13 11 1 19 -8 5 -10 14 -5 22 12 20 14 39 3 39 -5 0 -4
11 1 25 6 16 6 25 -1 25 -6 0 -6 6 0 19 12 21 -5 22 -52 3 -16 -7 -33 -10 -38
-6 -5 3 -9 0 -9 -6 0 -6 -4 -9 -9 -5 -5 3 -12 1 -16 -5 -4 -6 -11 -8 -16 -5
-5 4 -9 1 -9 -6 0 -7 -3 -9 -7 -6 -3 4 -13 1 -21 -6 -13 -10 -14 -9 -7 2 5 10
4 12 -3 7 -20 -12 -55 -17 -142 -17 -88 -1 -112 2 -120 13 -3 3 -14 8 -25 10
-21 3 -75 53 -75 68 0 6 -4 10 -8 10 -4 0 -9 8 -10 18 -2 21 -10 57 -12 57 -1
0 -3 7 -5 16 -2 12 5 15 36 14 23 -1 39 3 39 9 0 7 3 8 8 1 6 -9 61 -12 70 -5
3 3 41 3 47 0 13 -6 32 -6 47 2 9 4 19 4 22 0 4 -7 112 -9 126 -2 3 1 10 1 15
0 38 -8 45 -8 50 1 4 5 11 7 16 4 18 -12 49 -14 54 -4 4 5 11 7 16 3 5 -3 6
-10 3 -16 -5 -7 -2 -8 7 -2 8 4 28 9 44 9 28 1 30 3 30 38 0 20 5 37 10 37 6
0 3 5 -5 10 -13 9 -13 10 0 10 13 0 13 1 0 10 -9 6 -10 10 -3 10 8 0 9 9 3 30
-6 20 -5 30 2 30 7 0 6 5 -1 14 -6 8 -11 18 -9 22 3 13 -13 96 -22 114 -5 8
-14 30 -20 48 -7 17 -17 32 -22 32 -5 0 -6 5 -3 10 3 6 1 10 -4 10 -6 0 -11 6
-11 14 0 8 -7 16 -15 20 -8 3 -15 13 -15 21 0 9 -4 14 -9 11 -5 -3 -11 1 -15
9 -3 8 -12 15 -21 15 -8 0 -15 7 -15 15 0 8 -3 14 -7 13 -5 -1 -24 5 -43 13
-71 32 -92 39 -101 34 -5 -4 -9 -2 -9 2 0 5 -17 8 -37 8 -21 -1 -46 3 -57 8
-13 7 -16 6 -11 -3 6 -9 2 -9 -14 -1 -11 7 -21 8 -21 3z m17 -207 c6 0 15 3
19 7 4 4 13 3 20 -2 6 -6 16 -10 20 -9 25 4 45 -2 38 -13 -5 -8 -2 -9 9 -5 11
4 17 1 17 -8 0 -8 6 -15 13 -15 14 0 51 -57 52 -80 1 -8 5 -22 10 -30 6 -8 10
-29 11 -45 1 -30 1 -31 -52 -31 -32 0 -51 3 -47 9 4 6 1 7 -8 2 -21 -14 -159
-14 -152 -1 5 8 3 8 -8 0 -12 -9 -31 -10 -68 -5 -5 0 -16 8 -24 16 -16 16 -12
85 5 96 5 3 9 9 9 13 -3 19 2 28 35 60 20 20 40 33 45 31 4 -3 14 1 21 9 7 7
15 11 18 7 3 -4 10 -7 17 -6z"/>
<path d="M2293 4608 c1 -9 4 -15 8 -12 4 2 13 -4 20 -13 40 -49 257 -157 314
-157 11 0 22 -3 25 -7 3 -5 25 -9 48 -10 24 -2 46 -7 49 -11 2 -5 11 -4 19 3
11 9 14 9 14 -1 0 -10 3 -10 14 -1 11 9 16 9 21 0 6 -8 10 -7 16 2 7 12 9 12
9 0 0 -10 3 -11 13 -2 8 6 17 8 20 4 8 -7 7 -10 10 70 1 31 -2 57 -6 57 -5 0
-5 6 -1 12 12 19 12 48 1 48 -5 0 -4 7 3 15 7 8 11 16 9 16 -2 1 -140 2 -306
3 -277 1 -301 0 -300 -16z"/>
</g>
</svg>
